<svg width="206" height="31" viewBox="0 0 206 31" fill="none" xmlns="http://www.w3.org/2000/svg">
<path d="M44.9371 15.6874C42.5949 15.6874 40.7137 17.5109 40.7137 19.8078C40.7137 22.1048 42.5949 23.9407 44.9371 23.9407C46.0773 23.9407 47.1887 23.4673 48.0038 22.6975L48.7282 23.4837C47.7074 24.447 46.3119 25.0521 44.8753 25.0521C41.8827 25.0521 39.5117 22.7428 39.5117 19.8078C39.5117 16.8729 41.9116 14.6089 44.9206 14.6089C46.3449 14.6089 47.7197 15.1852 48.7118 16.1196L47.9996 16.9799C47.2011 16.1813 46.0732 15.6915 44.933 15.6915L44.9371 15.6874Z" fill="#4A3419"/>
<path d="M62.6106 22.3517H56.9671L55.8104 25.0026H54.5508L59.2023 14.6335H60.4331L65.0681 25.0026H63.7797L62.6106 22.3517ZM62.1372 21.2568L59.7827 15.922L57.4569 21.2568H62.1372Z" fill="#4A3419"/>
<path d="M75.198 15.7449C73.8643 15.7449 72.9916 16.28 72.9916 17.1691C72.9916 19.8653 78.8286 18.4575 78.8121 22.2199C78.8121 23.9364 77.285 25.0478 75.0621 25.0478C73.5514 25.0478 72.0695 24.3974 71.0898 23.463L71.625 22.4422C72.5882 23.3601 73.9054 23.8952 75.0786 23.8952C76.5728 23.8952 77.5072 23.286 77.5072 22.2816C77.5237 19.5113 71.6867 20.9768 71.6867 17.2597C71.6867 15.6296 73.1233 14.5923 75.2721 14.5923C76.4699 14.5923 77.7007 14.9792 78.561 15.5555L78.0588 16.6093C77.1244 16.0001 76.0295 15.749 75.198 15.749V15.7449Z" fill="#4A3419"/>
<path d="M93.2551 22.3517H87.6116L86.4549 25.0026H85.1953L89.8468 14.6335H91.0776L95.7167 25.0026H94.4283L93.2593 22.3517H93.2551ZM92.7818 21.2568L90.4272 15.922L88.1015 21.2568H92.7818Z" fill="#4A3419"/>
<path d="M113.841 14.6335L117.632 22.1582L121.411 14.6335H122.864V25.0026H121.769L121.752 16.3789L117.973 23.9036H117.261L113.499 16.3789V25.0026H112.371V14.6335H113.837H113.841Z" fill="#4A3419"/>
<path d="M138.048 22.3517H132.405L131.248 25.0026H129.988L134.64 14.6335H135.871L140.51 25.0026H139.221L138.052 22.3517H138.048ZM137.575 21.2568L135.22 15.922L132.894 21.2568H137.575Z" fill="#4A3419"/>
<path d="M157.15 19.8202C157.15 22.7675 154.825 25.0068 151.774 25.0068H147.625V14.6377H151.815C154.837 14.6377 157.15 16.8729 157.15 19.8243V19.8202ZM155.952 19.8367C155.952 17.4944 154.116 15.7326 151.791 15.7326H148.815V23.9118H151.836C154.145 23.9118 155.957 22.1624 155.957 19.8367H155.952Z" fill="#4A3419"/>
<path d="M171.832 14.6335V15.7285H165.978V19.2109H171.206V20.2935H165.978V23.9077H172.021V25.0026H164.793V14.6335H171.832Z" fill="#4A3419"/>
<path d="M186.71 25.0026L184.532 21.6849C184.326 21.7013 184.104 21.7137 183.865 21.7137H181.111V25.0026H179.926V14.6335H183.865C186.458 14.6335 187.953 15.9096 187.953 18.116C187.953 19.8202 187.109 20.9892 185.61 21.4626L188.056 25.0026H186.705H186.71ZM183.865 20.6187C185.746 20.6187 186.812 19.7749 186.812 18.1448C186.812 16.5147 185.746 15.7285 183.865 15.7285H181.111V20.6187H183.865Z" fill="#4A3419"/>
<path d="M202.669 22.3517H197.026L195.869 25.0026H194.609L199.261 14.6335H200.492L205.131 25.0026H203.842L202.673 22.3517H202.669ZM202.196 21.2568L199.841 15.922L197.516 21.2568H202.196Z" fill="#4A3419"/>
<path d="M7.41194 7.19531H1.10156V29.9217H24.5442V21.265" stroke="#4A3419" stroke-width="1.5"/>
<path d="M26.8384 14.93C27.3282 14.5925 30.6048 11.7028 30.6048 11.7028C27.5299 14.2673 26.3074 15.107 26.0398 15.284C25.9986 15.3128 25.941 15.3499 25.9204 15.3664C23.7429 16.91 21.5612 17.7662 21.5612 17.7662C20.6474 18.2066 18.5521 18.9888 18.5521 18.9888C17.9306 19.2604 18.4863 18.8364 18.4863 18.8364C20.3469 17.4657 21.4542 16.0703 21.697 15.7492C21.73 15.7039 21.7629 15.6463 21.7711 15.6298C22.1087 14.9835 23.5206 13.514 23.5206 13.514C23.0184 13.7857 21.8041 15.354 21.8041 15.354C21.6682 15.5187 21.6559 15.4898 21.6641 15.4487C21.6682 15.424 21.6847 15.3293 21.6847 15.3293L21.7217 14.399C21.7259 13.4029 21.9687 13.1065 22.0305 13.0488C21.5077 13.4317 21.5612 15.2758 21.5612 15.2758C21.5735 15.7245 21.376 15.9426 21.2772 16.025C21.2442 16.0538 21.1701 16.132 21.1372 16.169C20.7091 16.6465 19.5977 17.5316 19.3137 17.758C19.2684 17.7909 19.1737 17.8526 19.1367 17.8773C18.5027 18.2766 17.1567 19.4127 17.1567 19.4127C17.0167 19.3922 15.3702 20.1125 15.3702 20.1125C14.7075 20.4706 15.3537 19.8861 15.3537 19.8861C17.2884 17.8526 18.2023 15.1523 18.2023 15.1523C19.3178 12.559 21.2072 8.77195 21.2072 8.77195C21.6271 8.11745 25.6405 5.89874 25.6405 5.89874C28.6578 3.84879 30.3249 2.25165 30.3249 2.25165C27.8222 4.23573 26.0521 5.34715 26.0521 5.34715C25.7887 5.53238 25.8916 5.3595 25.9533 5.26894C25.9698 5.24424 26.0151 5.16603 26.0151 5.16603L27.2706 2.6427C27.6658 1.88941 27.9539 1.73299 27.9086 1.75357C27.8633 1.77415 27.5793 2.00467 27.5793 2.00467C27.3406 2.19402 26.6696 3.58123 26.6696 3.58123L25.834 5.18661C25.834 5.18661 25.7928 5.27717 25.7846 5.28952C25.6693 5.56943 25.4759 5.70115 25.3853 5.75055C25.3524 5.76701 25.2824 5.81229 25.2371 5.84111C24.7184 6.1663 22.5615 7.37239 22.154 7.59879C22.1128 7.62349 22.0593 7.66054 22.0428 7.67289C21.4212 8.16685 22.0181 7.323 22.0181 7.323C24.562 3.4742 27.8963 0.197585 27.8963 0.197585C25.1754 2.59742 24.0022 4.28513 24.0022 4.28513C23.7058 4.68441 23.8705 4.18222 23.8705 4.18222C24.2821 2.27634 24.2368 1.82355 24.2368 1.82355C24.171 1.34605 24.4262 0 24.4262 0C24.138 0.432217 24.0763 2.08699 24.0763 2.08699C24.0804 2.4163 23.8087 3.73353 23.6976 4.23573C23.6729 4.35922 23.6564 4.49918 23.6523 4.53211C23.6276 4.75439 23.4547 4.91081 23.4547 4.91081C22.051 6.47503 21.5283 7.45472 21.5283 7.45472C20.2357 9.57464 18.3998 13.2999 18.3998 13.2999C17.91 14.4402 18.1611 13.267 18.1611 13.267C18.2064 12.5178 18.7333 10.6737 18.7333 10.6737L19.6224 6.83727C19.8282 6.10867 20.421 2.264 20.421 2.264C20.0381 3.61416 19.5689 6.50384 19.5689 6.50384C19.5071 6.94429 19.4166 6.59029 19.4166 6.59029L19.3054 5.90285C19.1161 3.61416 18.4904 2.33397 18.4904 2.33397C19.1531 4.8079 19.1243 5.50768 19.1243 5.50768C19.2149 6.45033 19.3301 7.07602 19.3548 7.19951C19.3548 7.21186 19.3548 7.24067 19.3548 7.24067L18.0623 11.7028C17.6054 13.5263 17.6095 14.6913 17.6095 14.6913C17.6589 15.1976 15.7859 18.0173 15.7859 18.0173C14.0571 20.5735 10.5376 23.1257 10.126 23.4179C10.1013 23.4344 10.0478 23.4797 10.0313 23.492C9.55379 23.8872 10.0395 23.3274 10.0395 23.3274C11.0357 21.9155 12.0442 20.2566 12.0442 20.2566C13.2914 17.9638 13.5137 15.3334 13.5137 15.3334C13.5261 14.7613 13.7154 12.4396 13.7154 12.4396C13.8471 10.7931 14.8021 9.09303 14.8021 9.09303C13.6578 10.5667 13.5137 12.6784 13.5137 12.6784C13.4973 13.053 13.4273 12.843 13.4273 12.843C12.3941 10.8013 12.5875 9.54171 12.5875 9.54171C12.2377 10.5955 13.1679 12.6537 13.3326 13.0036C13.3491 13.0365 13.3655 13.0653 13.3696 13.0735C13.5137 13.2505 13.452 13.444 13.452 13.444L13.1432 15.7368C13.0486 16.9964 12.4311 18.5689 12.4311 18.5689C12.0977 19.4827 11.1015 21.0922 11.1015 21.0922C10.7023 21.7467 10.8998 21.1786 10.8998 21.1786C11.2044 20.0672 11.3279 18.8323 11.3279 18.8323C11.3897 18.1325 11.2374 15.5845 11.2374 15.5845C11.2086 15.7368 11.1921 17.0541 11.1921 17.0541C11.2538 18.1037 11.0645 19.2234 10.9657 19.5856C10.8628 19.952 10.4841 21.1869 10.3935 21.6891C10.303 22.1913 10.2289 22.2736 10.2289 22.2736L8.61114 24.2536C7.80434 25.1509 5.09577 26.497 5.09577 26.497C3.77031 27.2379 1.73271 28.9544 1 29.5801V30H2.77827L3.70033 29.1932C5.33452 27.7072 8.38886 25.9783 8.38886 25.9783C11.5049 24.0272 13.8183 21.508 13.8183 21.508C14.8804 20.5941 18.3875 19.4745 18.3875 19.4745C22.8373 17.8815 25.9369 15.6339 26.365 15.3128C26.3979 15.2881 26.4473 15.2593 26.4638 15.2552C28.0156 14.5966 31.4857 12.6784 31.4857 12.6784L26.8342 14.9218L26.8384 14.93Z" fill="#4A3419"/>
</svg>
