<svg width="197" height="28" viewBox="0 0 197 28" fill="none" xmlns="http://www.w3.org/2000/svg">
<path fill-rule="evenodd" clip-rule="evenodd" d="M23.6209 0.857272C22.9175 1.65045 22.8619 1.65572 22.5722 0.958649C22.2968 0.295642 22.2754 0.303752 22.3536 1.03813C22.4013 1.48662 21.6153 3.12893 20.6067 4.68771C19.5982 6.24648 18.3901 8.29755 17.922 9.24522C17.4543 10.1929 17.0025 10.9686 16.9186 10.9686C16.8344 10.9686 17.0275 9.94553 17.3474 8.69494C17.6677 7.44395 17.8473 6.33732 17.7472 6.23513C17.647 6.13294 17.2643 7.47517 16.8968 9.21846C16.5296 10.9617 15.8457 13.2091 15.3768 14.2127C14.5299 16.0261 10.0554 20.9592 9.64093 20.5362C9.52171 20.4146 9.64252 20.0464 9.90916 19.7183C10.233 19.3201 10.2704 18.8943 10.0216 18.4409C9.70332 17.8603 9.60834 17.9227 9.37667 18.8659C8.92087 20.7191 7.47678 22.3237 4.76861 23.9875C3.34796 24.8601 1.78028 25.8707 1.28474 26.2328L0.383873 26.8913L0.489974 16.1928L0.596076 5.49426L3.57645 5.26312L6.55683 5.03198L3.27842 4.95899L0 4.886V16.443V28H11.5241H23.0483L22.9644 23.438L22.8806 18.8761L22.7518 23.0325L22.6231 27.189H12.7024C7.2459 27.189 2.78169 27.1091 2.78169 27.0118C2.78169 26.9145 4.30565 25.8107 6.16779 24.5593C8.03033 23.3075 10.4182 21.5005 11.4741 20.5435C12.7902 19.3509 14.5776 18.3355 17.1559 17.3161C19.225 16.4977 21.2628 15.5525 21.6848 15.2155C22.1069 14.8781 21.3963 15.0643 20.106 15.6291C18.8157 16.194 17.6725 16.5671 17.5656 16.4576C17.4587 16.3485 17.6558 16.1478 18.0031 16.0119C18.3508 15.8757 19.1309 15.0959 19.7361 14.2788C20.6548 13.0388 20.4247 13.1718 18.3428 15.0841C16.9711 16.3437 15.4932 17.4693 15.0589 17.5853C14.2863 17.7917 14.2871 17.7678 15.1081 16.5115C15.5703 15.8047 16.1882 14.679 16.4819 14.0099C19.7929 6.4683 19.6367 6.71079 22.2042 5.11957C23.5426 4.2895 24.6378 3.40954 24.6378 3.16381C24.6378 2.91807 24.2352 3.09122 23.7437 3.54823C22.7192 4.50036 21.0693 5.43465 20.8344 5.1954C20.747 5.10619 21.5664 3.90508 22.6553 2.52635C24.5873 0.0799115 25.1067 -0.817885 23.6209 0.857272ZM18.311 3.09487C18.3301 3.56729 18.4243 3.66339 18.5511 3.3402C18.6659 3.04742 18.6516 2.69747 18.5197 2.56284C18.3877 2.42821 18.294 2.66746 18.311 3.09487ZM17.9451 4.886C17.9451 5.44358 18.0353 5.67188 18.1453 5.39289C18.2558 5.1143 18.2558 4.65811 18.1453 4.37912C18.0353 4.10053 17.9451 4.32843 17.9451 4.886ZM12.212 10.1252C12.0391 10.7995 12.0908 10.9581 12.3857 10.6572C12.6169 10.4212 12.7274 9.98933 12.632 9.69655C12.5327 9.39283 12.3527 9.57693 12.212 10.1252ZM24.4534 13.0692C23.5871 13.7192 22.7824 14.3603 22.6652 14.4941C22.5007 14.6815 25.9651 12.7764 26.552 12.3563C26.6211 12.3068 26.5317 12.1811 26.3533 12.0765C26.1745 11.9723 25.3197 12.4187 24.4534 13.0692ZM12.0137 13.4017C12.0137 14.1823 12.0956 14.5014 12.1953 14.1113C12.2955 13.7212 12.2955 13.0821 12.1953 12.692C12.0956 12.3019 12.0137 12.6211 12.0137 13.4017ZM39.8572 13.3855C36.7171 15.3388 36.5851 19.4734 39.5854 21.8817C40.9862 23.0062 44.0381 23.0435 45.357 21.9522C46.5185 20.9916 46.052 20.3712 44.7168 21.1003C42.5439 22.2868 39.8723 21.3671 38.9595 19.1181C38.3372 17.5845 38.6786 16.0683 39.9351 14.7861C41.0025 13.6969 42.983 13.4856 44.6886 14.2784C46.0711 14.9211 46.5106 14.3214 45.357 13.3668C44.1235 12.3461 41.5131 12.3551 39.8572 13.3855ZM56.0979 13.276C55.5976 14.2314 52.0573 22.3817 52.0573 22.5779C52.0573 22.6607 52.3347 22.7284 52.674 22.7284C53.0134 22.7284 53.4779 22.181 53.7064 21.5119C54.1161 20.3124 54.1622 20.2953 56.9765 20.2953C59.7828 20.2953 59.8381 20.3156 60.2807 21.5119C60.5283 22.181 61.0143 22.7284 61.3612 22.7284C61.7081 22.7284 61.9919 22.6692 61.9919 22.597C61.9919 22.5248 61.0358 20.2897 59.8675 17.6295C57.7482 12.8048 56.8736 11.7942 56.0979 13.276ZM69.3971 13.4313C67.4488 14.9949 68.4029 16.9325 71.7278 18.1628C73.251 18.7264 73.7461 19.1214 73.8486 19.855C73.9225 20.3813 73.7437 20.9665 73.4512 21.1558C72.6044 21.7037 70.1919 21.5658 69.2855 20.9178C68.8285 20.5914 68.3417 20.4393 68.2034 20.58C66.8813 21.9295 71.8693 23.4392 73.9305 22.3136C76.0112 21.1773 75.6881 18.3209 73.3825 17.4653C70.749 16.488 70.1382 16.0253 70.1382 15.0083C70.1382 14.1494 70.3441 13.9925 71.6117 13.8851C72.422 13.8165 73.4322 13.9499 73.857 14.1819C74.4467 14.5039 74.6815 14.4629 74.8524 14.0087C75.4195 12.5002 71.1234 12.0457 69.3971 13.4313ZM85.7165 13.0976C85.6048 13.3765 84.611 15.6575 83.5082 18.1664C81.8341 21.975 81.6167 22.7284 82.1909 22.7284C82.5907 22.7284 83.0675 22.2183 83.329 21.5119C83.7697 20.3205 83.8365 20.2953 86.547 20.2953C89.2476 20.2953 89.3267 20.3249 89.8087 21.5119C90.0941 22.215 90.5991 22.7284 91.0053 22.7284C91.5958 22.7284 91.3518 21.9194 89.4777 17.6595C87.9128 14.1024 87.0497 12.5907 86.584 12.5907C86.2188 12.5907 85.8286 12.819 85.7165 13.0976ZM107.691 17.6595C107.691 21.8947 107.789 22.7284 108.287 22.7284C108.775 22.7284 108.888 22.0082 108.907 18.7747L108.93 14.821L110.584 18.1664C111.494 20.0066 112.465 21.5119 112.742 21.5119C113.019 21.5119 114.007 20.0062 114.939 18.1664L116.632 14.821L116.746 18.7747C116.836 21.9222 116.978 22.7284 117.441 22.7284C117.921 22.7284 118.023 21.8391 118.023 17.6595C118.023 12.8551 117.981 12.5907 117.225 12.5907C116.621 12.5907 116.023 13.4244 114.753 16.0375C113.831 17.9332 112.978 19.4843 112.857 19.4843C112.736 19.4843 111.883 17.9332 110.961 16.0375C109.691 13.4244 109.093 12.5907 108.489 12.5907C107.733 12.5907 107.691 12.8551 107.691 17.6595ZM128.778 13.5031C128.584 14.0047 127.765 15.8753 126.958 17.6595C124.786 22.4608 124.702 22.7284 125.374 22.7284C125.691 22.7284 126.228 22.181 126.567 21.5119C127.161 20.3395 127.282 20.2953 129.906 20.2953C132.558 20.2953 132.643 20.3274 133.124 21.5119C133.395 22.181 133.883 22.7284 134.208 22.7284C134.912 22.7284 134.908 22.7146 132.421 16.9592C130.468 12.4418 129.531 11.5526 128.778 13.5031ZM141.866 17.6595V22.8144L145.04 22.6672C148.007 22.5297 148.299 22.4336 149.511 21.1972C150.658 20.0265 150.807 19.6194 150.807 17.6595C150.807 15.6997 150.658 15.2926 149.511 14.1219C148.299 12.8855 148.007 12.7894 145.04 12.6519L141.866 12.5047V17.6595ZM158.159 17.6595V22.7284H161.735C164.649 22.7284 165.312 22.6157 165.312 22.1201C165.312 21.6335 164.716 21.5119 162.331 21.5119H159.351V19.8898V18.2678H161.934C163.965 18.2678 164.517 18.1376 164.517 17.6595C164.517 17.1814 163.965 17.0513 161.934 17.0513H159.351V15.4471V13.8429L162.2 13.7237C164.038 13.6466 165.108 13.4244 165.214 13.0976C165.337 12.7168 164.479 12.5907 161.768 12.5907H158.159V17.6595ZM172.862 17.6595C172.862 21.8947 172.96 22.7284 173.458 22.7284C173.888 22.7284 174.054 22.2779 174.054 21.1064V19.4843H175.749C177.297 19.4843 177.528 19.6242 178.425 21.1064C178.975 22.0147 179.718 22.7284 180.114 22.7284C180.733 22.7284 180.689 22.5252 179.761 21.0934L178.7 19.4584L179.552 18.649C180.678 17.5784 181.007 16.0841 180.431 14.6628C179.806 13.1247 178.516 12.5907 175.426 12.5907H172.862V17.6595ZM191.167 13.5031C190.974 14.0047 190.155 15.8753 189.347 17.6595C187.175 22.4608 187.091 22.7284 187.763 22.7284C188.08 22.7284 188.617 22.181 188.956 21.5119C189.55 20.3395 189.672 20.2953 192.296 20.2953C194.947 20.2953 195.032 20.3274 195.513 21.5119C195.784 22.181 196.272 22.7284 196.597 22.7284C197.296 22.7284 197.307 22.7629 194.805 16.9621C192.858 12.4475 191.919 11.555 191.167 13.5031ZM148.5 14.7857C149.426 15.5983 149.615 16.0862 149.615 17.6595C149.615 20.3225 148.258 21.5119 145.222 21.5119H143.058V17.6595V13.8072H145.222C146.936 13.8072 147.617 14.0104 148.5 14.7857ZM178.891 14.4783C179.794 15.3128 179.823 16.5533 178.96 17.5261C178.479 18.0683 177.731 18.2678 176.178 18.2678H174.054V16.0375V13.8072H176.109C177.464 13.8072 178.412 14.0359 178.891 14.4783ZM58.1985 16.7674L59.2003 19.0788H57.0293C54.9387 19.0788 54.8716 19.0452 55.2117 18.1664C56.2084 15.5894 56.8891 14.1421 57.0345 14.2906C57.1235 14.3814 57.6473 15.4961 58.1985 16.7674ZM87.645 16.4548C88.1795 17.6875 88.6166 18.7824 88.6166 18.8878C88.6166 18.9928 87.7225 19.0788 86.6297 19.0788C85.5369 19.0788 84.6428 18.9454 84.6428 18.7824C84.6428 18.3558 86.3503 14.2127 86.526 14.2127C86.607 14.2127 87.1105 15.2216 87.645 16.4548ZM130.909 16.4921C131.471 17.7455 131.931 18.8404 131.931 18.9251C131.931 19.0095 130.961 19.0788 129.776 19.0788H127.62L128.649 16.6458C129.214 15.3076 129.724 14.2127 129.782 14.2127C129.839 14.2127 130.346 15.2382 130.909 16.4921ZM193.304 16.5046C193.869 17.7654 194.26 18.8704 194.172 18.9604C194.083 19.0504 193.122 19.0683 192.035 19.0001L190.06 18.8761L191.049 16.5444C191.592 15.2618 192.091 14.2127 192.157 14.2127C192.222 14.2127 192.738 15.2443 193.304 16.5046ZM11.0282 16.7329C10.6463 17.6522 10.4202 18.4933 10.5263 18.6011C10.7735 18.8533 12.0026 15.8741 11.8428 15.4102C11.7769 15.2184 11.4101 15.8137 11.0282 16.7329ZM9.96599 16.8822C9.98506 17.3546 10.0792 17.4507 10.206 17.1275C10.3209 16.8347 10.3065 16.4848 10.1746 16.3501C10.0427 16.2155 9.9489 16.4548 9.96599 16.8822Z" fill="#4A3419"/>
</svg>
