<svg width="226" height="32" viewBox="0 0 226 32" fill="none" xmlns="http://www.w3.org/2000/svg">
<path fill-rule="evenodd" clip-rule="evenodd" d="M27.0295 0.971327C26.2246 1.87003 26.161 1.876 25.8295 1.08619C25.5144 0.334976 25.4898 0.344165 25.5794 1.17625C25.6339 1.68441 24.7345 3.54522 23.5804 5.31138C22.4263 7.07754 21.0439 9.40149 20.5082 10.4752C19.973 11.549 19.456 12.4279 19.3601 12.4279C19.2637 12.4279 19.4847 11.2687 19.8507 9.85176C20.2172 8.43433 20.4228 7.18046 20.3082 7.06468C20.1936 6.94889 19.7557 8.46971 19.3351 10.4449C18.9149 12.4201 18.1323 14.9665 17.5957 16.1036C16.6267 18.1583 11.5064 23.7477 11.0322 23.2684C10.8957 23.1306 11.034 22.7134 11.3391 22.3417C11.7097 21.8905 11.7525 21.4081 11.4678 20.8944C11.1036 20.2365 10.9949 20.3072 10.7298 21.3759C10.2082 23.4757 8.55571 25.2937 5.45674 27.1789C3.83109 28.1677 2.03718 29.3126 1.47014 29.7229L0.439268 30.4691L0.56068 18.3472L0.682093 6.22525L4.09256 5.96335L7.50302 5.70146L3.75151 5.61876L0 5.53606V18.6307V31.7252H13.1871H26.3742L26.2783 26.5563L26.1823 21.3874L26.035 26.0969L25.8877 30.8063H14.5354C8.29152 30.8063 3.1831 30.7158 3.1831 30.6055C3.1831 30.4953 4.92698 29.2446 7.05784 27.8267C9.18915 26.4084 11.9216 24.361 13.1298 23.2767C14.6359 21.9254 16.6813 20.7749 19.6315 19.6199C21.9993 18.6927 24.3312 17.6217 24.8141 17.2399C25.297 16.8576 24.4839 17.0685 23.0074 17.7085C21.5309 18.3485 20.2227 18.7712 20.1004 18.6472C19.978 18.5236 20.2036 18.2962 20.601 18.1422C20.9989 17.9879 21.8915 17.1043 22.5841 16.1785C23.6354 14.7735 23.3721 14.9242 20.9898 17.091C19.4201 18.5181 17.7289 19.7935 17.2319 19.9249C16.3479 20.1588 16.3488 20.1317 17.2883 18.7083C17.8172 17.9075 18.5243 16.632 18.8603 15.8739C22.6491 7.32887 22.4704 7.60362 25.4084 5.80071C26.9399 4.86019 28.1932 3.86317 28.1932 3.58473C28.1932 3.3063 27.7325 3.50249 27.17 4.0203C25.9977 5.09911 24.1097 6.15771 23.841 5.88662C23.7409 5.78554 24.6786 4.42462 25.9245 2.86246C28.1354 0.0905433 28.7297 -0.9267 27.0295 0.971327ZM20.9534 3.50662C20.9753 4.04189 21.083 4.15079 21.2281 3.7846C21.3595 3.45287 21.3431 3.05635 21.1922 2.90381C21.0412 2.75127 20.9339 3.02235 20.9534 3.50662ZM20.5346 5.53606C20.5346 6.16781 20.6378 6.42649 20.7638 6.11038C20.8902 5.79473 20.8902 5.27784 20.7638 4.96173C20.6378 4.64608 20.5346 4.9043 20.5346 5.53606ZM13.9743 11.4723C13.7765 12.2364 13.8356 12.416 14.173 12.0751C14.4376 11.8077 14.564 11.3184 14.4549 10.9866C14.3412 10.6425 14.1352 10.8511 13.9743 11.4723ZM27.9822 14.8079C26.9909 15.5445 26.07 16.2709 25.9359 16.4225C25.7476 16.6348 29.712 14.4762 30.3836 14.0002C30.4627 13.9442 30.3604 13.8017 30.1562 13.6832C29.9516 13.5651 28.9735 14.071 27.9822 14.8079ZM13.7473 15.1847C13.7473 16.0692 13.841 16.4308 13.9552 15.9888C14.0697 15.5468 14.0697 14.8227 13.9552 14.3807C13.841 13.9387 13.7473 14.3002 13.7473 15.1847ZM45.6088 15.1663C42.0155 17.3795 41.8646 22.0642 45.2978 24.7929C46.9007 26.067 50.393 26.1093 51.9022 24.8729C53.2314 23.7844 52.6976 23.0814 51.1697 23.9075C48.6832 25.2519 45.6261 24.2099 44.5816 21.6617C43.8695 19.924 44.2601 18.2061 45.6979 16.7533C46.9193 15.5192 49.1857 15.2798 51.1374 16.1781C52.7194 16.9063 53.2223 16.2268 51.9022 15.1452C50.4908 13.9887 47.5037 13.9988 45.6088 15.1663ZM64.1931 15.0423C63.6206 16.1248 59.5694 25.3594 59.5694 25.5818C59.5694 25.6755 59.8868 25.7523 60.2752 25.7523C60.6635 25.7523 61.1951 25.132 61.4565 24.3739C61.9254 23.0148 61.9781 22.9955 65.1985 22.9955C68.4098 22.9955 68.473 23.0185 68.9796 24.3739C69.2629 25.132 69.819 25.7523 70.216 25.7523C70.6129 25.7523 70.9376 25.6852 70.9376 25.6034C70.9376 25.5216 69.8436 22.9891 68.5067 19.975C66.0816 14.5084 65.0807 13.3634 64.1931 15.0423ZM79.4115 15.2182C77.182 16.9899 78.2738 19.1852 82.0785 20.5792C83.8214 21.2179 84.388 21.6654 84.5054 22.4965C84.5899 23.0929 84.3853 23.7559 84.0506 23.9705C83.0816 24.5912 80.3209 24.435 79.2837 23.7008C78.7608 23.3309 78.2037 23.1586 78.0455 23.3181C76.5326 24.8471 82.2404 26.5577 84.599 25.2822C86.98 23.9948 86.6103 20.7584 83.972 19.7889C80.9585 18.6817 80.2596 18.1574 80.2596 17.0051C80.2596 16.0319 80.4951 15.8541 81.9457 15.7324C82.8729 15.6547 84.0288 15.8059 84.5149 16.0687C85.1897 16.4335 85.4585 16.3871 85.654 15.8725C86.3029 14.1633 81.3868 13.6483 79.4115 15.2182ZM98.0858 14.8401C97.958 15.1562 96.8208 17.7407 95.5589 20.5834C93.6431 24.8986 93.3944 25.7523 94.0515 25.7523C94.5089 25.7523 95.0546 25.1743 95.3538 24.3739C95.8581 23.024 95.9345 22.9955 99.0362 22.9955C102.127 22.9955 102.217 23.0291 102.769 24.3739C103.095 25.1706 103.673 25.7523 104.138 25.7523C104.814 25.7523 104.534 24.8357 102.39 20.009C100.599 15.9787 99.6114 14.2658 99.0785 14.2658C98.6606 14.2658 98.214 14.5245 98.0858 14.8401ZM123.231 20.009C123.231 24.8076 123.344 25.7523 123.913 25.7523C124.471 25.7523 124.601 24.9363 124.622 21.2725L124.649 16.7928L126.542 20.5834C127.584 22.6684 128.694 24.3739 129.011 24.3739C129.328 24.3739 130.459 22.6679 131.525 20.5834L133.463 16.7928L133.593 21.2725C133.697 24.8389 133.859 25.7523 134.389 25.7523C134.937 25.7523 135.054 24.7447 135.054 20.009C135.054 14.5654 135.007 14.2658 134.142 14.2658C133.45 14.2658 132.765 15.2104 131.312 18.1712C130.257 20.3192 129.282 22.0766 129.143 22.0766C129.004 22.0766 128.028 20.3192 126.974 18.1712C125.52 15.2104 124.836 14.2658 124.144 14.2658C123.279 14.2658 123.231 14.5654 123.231 20.009ZM147.362 15.2996C147.14 15.8679 146.202 17.9874 145.279 20.009C142.793 25.449 142.697 25.7523 143.466 25.7523C143.829 25.7523 144.443 25.132 144.831 24.3739C145.511 23.0456 145.65 22.9955 148.653 22.9955C151.686 22.9955 151.784 23.0318 152.334 24.3739C152.645 25.132 153.203 25.7523 153.574 25.7523C154.381 25.7523 154.376 25.7367 151.53 19.2155C149.296 14.0972 148.223 13.0896 147.362 15.2996ZM162.338 20.009V25.8497L165.97 25.6829C169.365 25.5271 169.699 25.4182 171.086 24.0174C172.398 22.6909 172.569 22.2296 172.569 20.009C172.569 17.7885 172.398 17.3272 171.086 16.0007C169.699 14.5998 169.365 14.4909 165.97 14.3352L162.338 14.1684V20.009ZM180.982 20.009V25.7523H185.074C188.409 25.7523 189.167 25.6245 189.167 25.0631C189.167 24.5117 188.485 24.3739 185.757 24.3739H182.346V22.5361V20.6982H185.302C187.626 20.6982 188.258 20.5507 188.258 20.009C188.258 19.4673 187.626 19.3198 185.302 19.3198H182.346V17.5022V15.6846L185.606 15.5495C187.71 15.4622 188.934 15.2104 189.055 14.8401C189.196 14.4087 188.214 14.2658 185.112 14.2658H180.982V20.009ZM197.807 20.009C197.807 24.8076 197.919 25.7523 198.489 25.7523C198.981 25.7523 199.171 25.2418 199.171 23.9144V22.0766H201.11C202.882 22.0766 203.146 22.2351 204.173 23.9144C204.802 24.9436 205.653 25.7523 206.106 25.7523C206.814 25.7523 206.764 25.5221 205.701 23.8997L204.488 22.0472L205.462 21.1301C206.75 19.9171 207.127 18.224 206.468 16.6136C205.753 14.8709 204.277 14.2658 200.741 14.2658H197.807V20.009ZM218.754 15.2996C218.532 15.8679 217.595 17.9874 216.671 20.009C214.185 25.449 214.089 25.7523 214.859 25.7523C215.221 25.7523 215.835 25.132 216.223 24.3739C216.903 23.0456 217.042 22.9955 220.045 22.9955C223.079 22.9955 223.176 23.0318 223.726 24.3739C224.037 25.132 224.595 25.7523 224.967 25.7523C225.767 25.7523 225.779 25.7913 222.916 19.2188C220.688 14.1036 219.614 13.0923 218.754 15.2996ZM169.929 16.7528C170.989 17.6736 171.205 18.2263 171.205 20.009C171.205 23.0263 169.653 24.3739 166.178 24.3739H163.702V20.009V15.6442H166.178C168.139 15.6442 168.918 15.8744 169.929 16.7528ZM204.706 16.4046C205.74 17.3501 205.772 18.7556 204.785 19.8579C204.234 20.4722 203.379 20.6982 201.602 20.6982H199.171V18.1712V15.6442H201.522C203.073 15.6442 204.158 15.9033 204.706 16.4046ZM66.5968 18.9982L67.7432 21.6171H65.259C62.8666 21.6171 62.7898 21.579 63.1791 20.5834C64.3195 17.6635 65.0985 16.0237 65.2649 16.1918C65.3667 16.2948 65.9661 17.5578 66.5968 18.9982ZM100.293 18.644C100.904 20.0407 101.404 21.2813 101.404 21.4007C101.404 21.5197 100.381 21.6171 99.1308 21.6171C97.8803 21.6171 96.8571 21.466 96.8571 21.2813C96.8571 20.7979 98.8111 16.1036 99.0121 16.1036C99.1049 16.1036 99.681 17.2468 100.293 18.644ZM149.8 18.6862C150.443 20.1064 150.97 21.347 150.97 21.443C150.97 21.5386 149.86 21.6171 148.503 21.6171H146.036L147.213 18.8604C147.86 17.3442 148.444 16.1036 148.51 16.1036C148.576 16.1036 149.156 17.2656 149.8 18.6862ZM221.199 18.7005C221.846 20.1289 222.293 21.381 222.192 21.483C222.091 21.585 220.991 21.6052 219.747 21.528L217.486 21.3874L218.618 18.7455C219.24 17.2922 219.811 16.1036 219.886 16.1036C219.961 16.1036 220.551 17.2725 221.199 18.7005ZM12.6196 18.9592C12.1826 20.0008 11.9239 20.9537 12.0453 21.0759C12.3281 21.3617 13.7346 17.986 13.5518 17.4604C13.4763 17.2431 13.0566 17.9176 12.6196 18.9592ZM11.4041 19.1282C11.426 19.6635 11.5337 19.7724 11.6788 19.4062C11.8102 19.0745 11.7938 18.678 11.6429 18.5254C11.4919 18.3729 11.3846 18.644 11.4041 19.1282Z" fill="#F3EDE2"/>
</svg>
